<svg width="72" height="50" viewBox="0 0 72 50" fill="none" xmlns="http://www.w3.org/2000/svg">
<g clip-path="url(#clip0_6_552)">
<path d="M54.8698 28.1313C54.8698 29.4423 53.8327 30.505 52.5535 30.505C51.2744 30.505 50.2373 29.4423 50.2373 28.1313C50.2373 26.8203 51.2744 25.7576 52.5535 25.7576C53.8327 25.7576 54.8698 26.8203 54.8698 28.1313Z" fill="url(#paint0_linear_6_552)"/>
<path d="M46.5314 47.6264C46.5314 48.9372 45.4943 50 44.2152 50C42.936 50 41.8989 48.9372 41.8989 47.6264C41.8989 46.3153 42.936 45.2524 44.2152 45.2524C45.4943 45.2524 46.5314 46.3153 46.5314 47.6264Z" fill="url(#paint1_linear_6_552)"/>
<path d="M43.0311 39.8486C43.0311 41.1594 41.994 42.2222 40.7149 42.2222C39.4358 42.2222 38.3987 41.1594 38.3987 39.8486C38.3987 38.5375 39.4358 37.4747 40.7149 37.4747C41.994 37.4747 43.0311 38.5375 43.0311 39.8486Z" fill="url(#paint2_linear_6_552)"/>
<path d="M64.7526 18.9394C64.7526 20.2504 63.7155 21.3131 62.4363 21.3131C61.1572 21.3131 60.1201 20.2504 60.1201 18.9394C60.1201 17.6284 61.1572 16.5657 62.4363 16.5657C63.7155 16.5657 64.7526 17.6284 64.7526 18.9394Z" fill="url(#paint3_linear_6_552)"/>
<path d="M57.1348 10.4546C57.1348 11.7655 56.0977 12.8283 54.8182 12.8283C53.5391 12.8283 52.502 11.7655 52.502 10.4546C52.502 9.14359 53.5391 8.08081 54.8182 8.08081C56.0977 8.08081 57.1348 9.14359 57.1348 10.4546Z" fill="url(#paint4_linear_6_552)"/>
<path d="M46.5314 2.37374C46.5314 3.68472 45.4943 4.74747 44.2152 4.74747C42.936 4.74747 41.8989 3.68472 41.8989 2.37374C41.8989 1.06276 42.936 0 44.2152 0C45.4943 0 46.5314 1.06276 46.5314 2.37374Z" fill="url(#paint5_linear_6_552)"/>
<path d="M33.3542 5.70709C33.3542 7.01807 32.3172 8.08081 31.0379 8.08081C29.7587 8.08081 28.7217 7.01807 28.7217 5.70709C28.7217 4.39609 29.7587 3.33334 31.0379 3.33334C32.3172 3.33334 33.3542 4.39609 33.3542 5.70709Z" fill="url(#paint6_linear_6_552)"/>
<path d="M16.3684 10.4546C16.3684 11.7655 15.3314 12.8283 14.0521 12.8283C12.7729 12.8283 11.7358 11.7655 11.7358 10.4546C11.7358 9.14359 12.7729 8.08081 14.0521 8.08081C15.3314 8.08081 16.3684 9.14359 16.3684 10.4546Z" fill="url(#paint7_linear_6_552)"/>
<path d="M4.63254 21.3636C4.63254 22.6746 3.5955 23.7374 2.31627 23.7374C1.03703 23.7374 0 22.6746 0 21.3636C0 20.0527 1.03703 18.9899 2.31627 18.9899C3.5955 18.9899 4.63254 20.0527 4.63254 21.3636Z" fill="url(#paint8_linear_6_552)"/>
<path d="M16.3684 25.8081C16.3684 27.119 15.3314 28.1818 14.0521 28.1818C12.7729 28.1818 11.7358 27.119 11.7358 25.8081C11.7358 24.4971 12.7729 23.4343 14.0521 23.4343C15.3314 23.4343 16.3684 24.4971 16.3684 25.8081Z" fill="url(#paint9_linear_6_552)"/>
<path d="M26.354 18.9394C26.354 20.2504 25.3169 21.3131 24.0377 21.3131C22.7585 21.3131 21.7214 20.2504 21.7214 18.9394C21.7214 17.6284 22.7585 16.5657 24.0377 16.5657C25.3169 16.5657 26.354 17.6284 26.354 18.9394Z" fill="url(#paint10_linear_6_552)"/>
<path d="M42.5163 12.8788C42.5163 14.1898 41.4795 15.2525 40.2 15.2525C38.9209 15.2525 37.8838 14.1898 37.8838 12.8788C37.8838 11.5678 38.9209 10.505 40.2 10.505C41.4795 10.505 42.5163 11.5678 42.5163 12.8788Z" fill="url(#paint11_linear_6_552)"/>
<path d="M45.7077 23.6869C45.7077 24.9979 44.6709 26.0606 43.3914 26.0606C42.1123 26.0606 41.0752 24.9979 41.0752 23.6869C41.0752 22.3759 42.1123 21.3131 43.3914 21.3131C44.6709 21.3131 45.7077 22.3759 45.7077 23.6869Z" fill="url(#paint12_linear_6_552)"/>
<path d="M22.7509 35.101C22.7509 36.4122 21.7139 37.4747 20.4347 37.4747C19.1554 37.4747 18.1184 36.4122 18.1184 35.101C18.1184 33.79 19.1554 32.7273 20.4347 32.7273C21.7139 32.7273 22.7509 33.79 22.7509 35.101Z" fill="url(#paint13_linear_6_552)"/>
<path d="M33.3542 32.8788C33.3542 34.1898 32.3172 35.2524 31.0379 35.2524C29.7587 35.2524 28.7217 34.1898 28.7217 32.8788C28.7217 31.5678 29.7587 30.505 31.0379 30.505C32.3172 30.505 33.3542 31.5678 33.3542 32.8788Z" fill="url(#paint14_linear_6_552)"/>
<path d="M51.8835 29.2929L52.1694 29.4074L45.0672 46.493L44.7812 46.3785L51.8835 29.2929Z" fill="url(#paint15_linear_6_552)"/>
<path d="M63.5528 17.1717L63.7693 17.3879L51.4741 29.2338L51.2576 29.0176L63.5528 17.1717Z" fill="url(#paint16_linear_6_552)"/>
<path d="M63.9986 20.2391L63.7664 20.4389L53.4138 8.8514L53.6459 8.65164L63.9986 20.2391Z" fill="url(#paint17_linear_6_552)"/>
<path d="M53.7142 9.09336L53.5281 9.33509L45.9351 3.70193L46.1215 3.46024L53.7142 9.09336Z" fill="url(#paint18_linear_6_552)"/>
<path d="M43.4096 2.42426L43.4779 2.71983L32.3928 5.17807L32.3247 4.88251L43.4096 2.42426Z" fill="url(#paint19_linear_6_552)"/>
<path d="M29.1744 6.08685L29.2599 6.37803L16.0298 10.1161L15.9443 9.82491L29.1744 6.08685Z" fill="url(#paint20_linear_6_552)"/>
<path d="M23.2442 18.1638L23.0563 18.4043L14.6182 12.0587L14.806 11.8182L23.2442 18.1638Z" fill="url(#paint21_linear_6_552)"/>
<path d="M40.3489 12.6373L40.4522 12.9229L24.6113 18.4376L24.5081 18.1521L40.3489 12.6373Z" fill="url(#paint22_linear_6_552)"/>
<path d="M43.8428 23.4922L44.0279 23.7348L30.5743 33.6212L30.3892 33.3786L43.8428 23.4922Z" fill="url(#paint23_linear_6_552)"/>
<path d="M43.7027 24.9132L43.4037 24.9892L39.8398 11.4901L40.1388 11.4141L43.7027 24.9132Z" fill="url(#paint24_linear_6_552)"/>
<path d="M40.9665 39.1965L40.6636 39.1382L43.4002 25.4546L43.7034 25.5129L40.9665 39.1965Z" fill="url(#paint25_linear_6_552)"/>
<path d="M52.5486 27.5316L52.4446 27.817L44.0862 24.8887L44.1902 24.6033L52.5486 27.5316Z" fill="url(#paint26_linear_6_552)"/>
<path d="M44.3395 22.4108L44.1067 22.2118L53.4399 11.6957L53.6727 11.8947L44.3395 22.4108Z" fill="url(#paint27_linear_6_552)"/>
<path d="M13.2547 26.5875L13.074 26.3417L24.5985 18.1818L24.7792 18.4275L13.2547 26.5875Z" fill="url(#paint28_linear_6_552)"/>
<path d="M31.4615 32.4809L31.1941 32.6324L24.0891 20.5555L24.3566 20.404L31.4615 32.4809Z" fill="url(#paint29_linear_6_552)"/>
<path d="M12.6218 11.5151L12.8279 11.7408L3.69707 19.7681L3.49097 19.5424L12.6218 11.5151Z" fill="url(#paint30_linear_6_552)"/>
<path d="M12.5549 25.1717L12.4476 25.4558L3.50024 22.2033L3.60753 21.9192L12.5549 25.1717Z" fill="url(#paint31_linear_6_552)"/>
<path d="M20.2383 34.2912L19.9839 34.463L14.5725 26.752L14.8269 26.5801L20.2383 34.2912Z" fill="url(#paint32_linear_6_552)"/>
<path d="M21.741 34.8979L21.688 34.5995L31.0879 32.9917L31.1409 33.2902L21.741 34.8979Z" fill="url(#paint33_linear_6_552)"/>
<path d="M31.1924 31.5663L31.3516 31.4141L38.8961 39.0153L38.7369 39.1674L31.1924 31.5663Z" fill="url(#paint34_linear_6_552)"/>
<path d="M41.8352 41.7719L42.0457 41.7021L43.7286 46.6038L43.5177 46.6733L41.8352 41.7719Z" fill="url(#paint35_linear_6_552)"/>
</g>
<defs>
<linearGradient id="paint0_linear_6_552" x1="32.3762" y1="1.42555e-06" x2="11.8198" y2="50.2756" gradientUnits="userSpaceOnUse">
<stop stop-color="#0062FF"/>
<stop offset="1" stop-color="#02255D"/>
</linearGradient>
<linearGradient id="paint1_linear_6_552" x1="32.3764" y1="3.34153e-07" x2="11.82" y2="50.2756" gradientUnits="userSpaceOnUse">
<stop stop-color="#0062FF"/>
<stop offset="1" stop-color="#02255D"/>
</linearGradient>
<linearGradient id="paint2_linear_6_552" x1="32.3763" y1="2.89127e-05" x2="11.8199" y2="50.2756" gradientUnits="userSpaceOnUse">
<stop stop-color="#0062FF"/>
<stop offset="1" stop-color="#02255D"/>
</linearGradient>
<linearGradient id="paint3_linear_6_552" x1="32.3763" y1="1.27233e-05" x2="11.8199" y2="50.2756" gradientUnits="userSpaceOnUse">
<stop stop-color="#0062FF"/>
<stop offset="1" stop-color="#02255D"/>
</linearGradient>
<linearGradient id="paint4_linear_6_552" x1="32.3763" y1="1.26786e-05" x2="11.8199" y2="50.2756" gradientUnits="userSpaceOnUse">
<stop stop-color="#0062FF"/>
<stop offset="1" stop-color="#02255D"/>
</linearGradient>
<linearGradient id="paint5_linear_6_552" x1="32.3764" y1="9.96863e-07" x2="11.82" y2="50.2756" gradientUnits="userSpaceOnUse">
<stop stop-color="#0062FF"/>
<stop offset="1" stop-color="#02255D"/>
</linearGradient>
<linearGradient id="paint6_linear_6_552" x1="32.3762" y1="1.04533e-05" x2="11.8198" y2="50.2756" gradientUnits="userSpaceOnUse">
<stop stop-color="#0062FF"/>
<stop offset="1" stop-color="#02255D"/>
</linearGradient>
<linearGradient id="paint7_linear_6_552" x1="32.3764" y1="1.35426e-05" x2="11.82" y2="50.2756" gradientUnits="userSpaceOnUse">
<stop stop-color="#0062FF"/>
<stop offset="1" stop-color="#02255D"/>
</linearGradient>
<linearGradient id="paint8_linear_6_552" x1="32.3763" y1="1.08371e-06" x2="11.8199" y2="50.2756" gradientUnits="userSpaceOnUse">
<stop stop-color="#0062FF"/>
<stop offset="1" stop-color="#02255D"/>
</linearGradient>
<linearGradient id="paint9_linear_6_552" x1="32.3764" y1="-1.3614e-05" x2="11.82" y2="50.2756" gradientUnits="userSpaceOnUse">
<stop stop-color="#0062FF"/>
<stop offset="1" stop-color="#02255D"/>
</linearGradient>
<linearGradient id="paint10_linear_6_552" x1="32.3763" y1="1.1833e-05" x2="11.8199" y2="50.2756" gradientUnits="userSpaceOnUse">
<stop stop-color="#0062FF"/>
<stop offset="1" stop-color="#02255D"/>
</linearGradient>
<linearGradient id="paint11_linear_6_552" x1="32.3763" y1="1.6972e-06" x2="11.8199" y2="50.2756" gradientUnits="userSpaceOnUse">
<stop stop-color="#0062FF"/>
<stop offset="1" stop-color="#02255D"/>
</linearGradient>
<linearGradient id="paint12_linear_6_552" x1="32.3764" y1="2.48547e-05" x2="11.82" y2="50.2756" gradientUnits="userSpaceOnUse">
<stop stop-color="#0062FF"/>
<stop offset="1" stop-color="#02255D"/>
</linearGradient>
<linearGradient id="paint13_linear_6_552" x1="32.3763" y1="7.80446e-06" x2="11.8199" y2="50.2756" gradientUnits="userSpaceOnUse">
<stop stop-color="#0062FF"/>
<stop offset="1" stop-color="#02255D"/>
</linearGradient>
<linearGradient id="paint14_linear_6_552" x1="32.3762" y1="4.82482e-07" x2="11.8198" y2="50.2756" gradientUnits="userSpaceOnUse">
<stop stop-color="#0062FF"/>
<stop offset="1" stop-color="#02255D"/>
</linearGradient>
<linearGradient id="paint15_linear_6_552" x1="32.3763" y1="-8.71015e-06" x2="11.8199" y2="50.2756" gradientUnits="userSpaceOnUse">
<stop stop-color="#0062FF"/>
<stop offset="1" stop-color="#02255D"/>
</linearGradient>
<linearGradient id="paint16_linear_6_552" x1="32.3763" y1="-8.58255e-06" x2="11.8199" y2="50.2756" gradientUnits="userSpaceOnUse">
<stop stop-color="#0062FF"/>
<stop offset="1" stop-color="#02255D"/>
</linearGradient>
<linearGradient id="paint17_linear_6_552" x1="32.3763" y1="1.11469e-05" x2="11.8199" y2="50.2756" gradientUnits="userSpaceOnUse">
<stop stop-color="#0062FF"/>
<stop offset="1" stop-color="#02255D"/>
</linearGradient>
<linearGradient id="paint18_linear_6_552" x1="32.3763" y1="-1.04099e-05" x2="11.8199" y2="50.2756" gradientUnits="userSpaceOnUse">
<stop stop-color="#0062FF"/>
<stop offset="1" stop-color="#02255D"/>
</linearGradient>
<linearGradient id="paint19_linear_6_552" x1="32.3762" y1="1.33946e-05" x2="11.8198" y2="50.2756" gradientUnits="userSpaceOnUse">
<stop stop-color="#0062FF"/>
<stop offset="1" stop-color="#02255D"/>
</linearGradient>
<linearGradient id="paint20_linear_6_552" x1="32.3763" y1="1.4262e-05" x2="11.8199" y2="50.2756" gradientUnits="userSpaceOnUse">
<stop stop-color="#0062FF"/>
<stop offset="1" stop-color="#02255D"/>
</linearGradient>
<linearGradient id="paint21_linear_6_552" x1="32.3762" y1="1.44282e-05" x2="11.8198" y2="50.2756" gradientUnits="userSpaceOnUse">
<stop stop-color="#0062FF"/>
<stop offset="1" stop-color="#02255D"/>
</linearGradient>
<linearGradient id="paint22_linear_6_552" x1="32.3762" y1="5.09547e-06" x2="11.8198" y2="50.2756" gradientUnits="userSpaceOnUse">
<stop stop-color="#0062FF"/>
<stop offset="1" stop-color="#02255D"/>
</linearGradient>
<linearGradient id="paint23_linear_6_552" x1="32.3763" y1="-5.09541e-06" x2="11.8199" y2="50.2756" gradientUnits="userSpaceOnUse">
<stop stop-color="#0062FF"/>
<stop offset="1" stop-color="#02255D"/>
</linearGradient>
<linearGradient id="paint24_linear_6_552" x1="32.3763" y1="-7.37738e-06" x2="11.8199" y2="50.2756" gradientUnits="userSpaceOnUse">
<stop stop-color="#0062FF"/>
<stop offset="1" stop-color="#02255D"/>
</linearGradient>
<linearGradient id="paint25_linear_6_552" x1="32.3763" y1="1.11134e-05" x2="11.8199" y2="50.2756" gradientUnits="userSpaceOnUse">
<stop stop-color="#0062FF"/>
<stop offset="1" stop-color="#02255D"/>
</linearGradient>
<linearGradient id="paint26_linear_6_552" x1="32.3762" y1="2.04007e-06" x2="11.8198" y2="50.2756" gradientUnits="userSpaceOnUse">
<stop stop-color="#0062FF"/>
<stop offset="1" stop-color="#02255D"/>
</linearGradient>
<linearGradient id="paint27_linear_6_552" x1="32.3762" y1="1.21988e-05" x2="11.8198" y2="50.2756" gradientUnits="userSpaceOnUse">
<stop stop-color="#0062FF"/>
<stop offset="1" stop-color="#02255D"/>
</linearGradient>
<linearGradient id="paint28_linear_6_552" x1="32.3762" y1="-9.30561e-06" x2="11.8198" y2="50.2756" gradientUnits="userSpaceOnUse">
<stop stop-color="#0062FF"/>
<stop offset="1" stop-color="#02255D"/>
</linearGradient>
<linearGradient id="paint29_linear_6_552" x1="32.3762" y1="-3.46619e-06" x2="11.8198" y2="50.2756" gradientUnits="userSpaceOnUse">
<stop stop-color="#0062FF"/>
<stop offset="1" stop-color="#02255D"/>
</linearGradient>
<linearGradient id="paint30_linear_6_552" x1="32.3764" y1="-5.62996e-07" x2="11.82" y2="50.2756" gradientUnits="userSpaceOnUse">
<stop stop-color="#0062FF"/>
<stop offset="1" stop-color="#02255D"/>
</linearGradient>
<linearGradient id="paint31_linear_6_552" x1="32.3764" y1="-3.68723e-06" x2="11.82" y2="50.2756" gradientUnits="userSpaceOnUse">
<stop stop-color="#0062FF"/>
<stop offset="1" stop-color="#02255D"/>
</linearGradient>
<linearGradient id="paint32_linear_6_552" x1="32.3764" y1="4.23528e-07" x2="11.82" y2="50.2756" gradientUnits="userSpaceOnUse">
<stop stop-color="#0062FF"/>
<stop offset="1" stop-color="#02255D"/>
</linearGradient>
<linearGradient id="paint33_linear_6_552" x1="32.3763" y1="1.38912e-05" x2="11.8199" y2="50.2756" gradientUnits="userSpaceOnUse">
<stop stop-color="#0062FF"/>
<stop offset="1" stop-color="#02255D"/>
</linearGradient>
<linearGradient id="paint34_linear_6_552" x1="32.3763" y1="-8.19835e-06" x2="11.8199" y2="50.2756" gradientUnits="userSpaceOnUse">
<stop stop-color="#0062FF"/>
<stop offset="1" stop-color="#02255D"/>
</linearGradient>
<linearGradient id="paint35_linear_6_552" x1="32.3764" y1="-2.23416e-05" x2="11.8199" y2="50.2756" gradientUnits="userSpaceOnUse">
<stop stop-color="#0062FF"/>
<stop offset="1" stop-color="#02255D"/>
</linearGradient>
<clipPath id="clip0_6_552">
<rect width="72" height="50" fill="white"/>
</clipPath>
</defs>
</svg>
